<svg width="14" height="15" viewBox="0 0 14 15" fill="none" xmlns="http://www.w3.org/2000/svg">
<path d="M6.86913 0C4.00227 0 3.16382 0.00303453 3.00084 0.0169031C2.41251 0.0670747 2.04642 0.16211 1.64758 0.365826C1.34021 0.522415 1.0978 0.70392 0.858561 0.958355C0.422863 1.42236 0.158801 1.99321 0.0632086 2.67178C0.0167361 3.0012 0.00321421 3.06838 0.000468318 4.75104C-0.000585398 5.31192 0.000468318 6.05009 0.000468318 7.04019C0.000468318 9.97898 0.00363464 10.8383 0.0173693 11.0052C0.0649007 11.5925 0.154679 11.962 0.344805 12.3662C0.708155 13.1399 1.4021 13.7207 2.21964 13.9375C2.50272 14.0122 2.81536 14.0534 3.21674 14.0729C3.38679 14.0805 5.12009 14.0859 6.85444 14.0859C8.5888 14.0859 10.3232 14.0838 10.489 14.0751C10.9537 14.0527 11.2236 14.0155 11.522 13.9364C12.3448 13.7186 13.0261 13.1464 13.3968 12.3619C13.5833 11.9674 13.6778 11.5838 13.7206 11.0272C13.7299 10.9058 13.7338 8.97078 13.7338 7.03836C13.7338 5.1056 13.7295 3.17415 13.7203 3.05278C13.6769 2.48713 13.5824 2.10678 13.39 1.70475C13.2321 1.37566 13.0567 1.12989 12.8022 0.878605C12.3479 0.433449 11.7923 0.162541 11.1302 0.0645832C10.8094 0.0170096 10.7456 0.00292277 9.10414 0H6.86913Z" fill="#45403D"/>
<path d="M6.86938 1.70898V1.70996C8.25572 1.70996 8.43116 1.71474 8.97778 1.74023C9.53108 1.7662 9.91419 1.85625 10.2512 1.99023C10.5995 2.12867 10.8954 2.31559 11.1897 2.61719C11.484 2.91862 11.6658 3.22235 11.801 3.57812C11.9307 3.92192 12.0182 4.31359 12.0442 4.87988C12.0687 5.44011 12.0754 5.62029 12.0754 7.04199C12.0754 8.46381 12.0687 8.64374 12.0442 9.2041C12.0247 9.62871 11.9706 9.95474 11.8899 10.2363L11.801 10.5049C11.6657 10.8607 11.4841 11.1653 11.1897 11.4668C10.8957 11.7684 10.5992 11.9552 10.2512 12.0938C9.91478 12.2278 9.53204 12.3178 8.97876 12.3438C8.43184 12.3693 8.25648 12.375 6.86938 12.375C5.48217 12.375 5.30603 12.3693 4.75903 12.3438C4.20609 12.3178 3.82387 12.2277 3.48755 12.0938C3.13972 11.9552 2.84215 11.7685 2.5481 11.4668C2.25379 11.1653 2.07273 10.8608 1.93774 10.5049C1.80737 10.161 1.71904 9.77025 1.6936 9.2041C1.66883 8.6437 1.66333 8.46378 1.66333 7.04199C1.66333 5.62039 1.66916 5.44001 1.6936 4.87988C1.71847 4.31372 1.80688 3.92221 1.93774 3.57812C2.07303 3.22242 2.2547 2.91867 2.54907 2.61719C2.84322 2.31564 3.13964 2.12873 3.48755 1.99023C3.82369 1.85624 4.20599 1.76623 4.75903 1.74023C5.30586 1.71473 5.48226 1.70996 6.86841 1.70996V1.70898H6.86938ZM6.31079 2.85059C5.44744 2.85204 5.26281 2.85896 4.81079 2.87988C4.32431 2.90281 4.06451 2.98487 3.89478 3.05273C3.66951 3.14264 3.51088 3.24883 3.34204 3.42188C3.17328 3.5949 3.07038 3.7578 2.98267 3.98926C2.91648 4.16395 2.83504 4.43029 2.81274 4.92969C2.78838 5.47904 2.78345 5.64227 2.78345 7.03906C2.78345 8.43622 2.78838 8.60098 2.81274 9.15039C2.83494 9.64927 2.91653 9.91542 2.98267 10.0898L3.052 10.252C3.12605 10.4035 3.21543 10.5274 3.34204 10.6572C3.51082 10.8302 3.66968 10.9357 3.89478 11.0254C4.0648 11.093 4.32438 11.1762 4.81079 11.1992C5.34669 11.2242 5.50663 11.2295 6.86938 11.2295C8.23196 11.2295 8.39238 11.2242 8.92798 11.1992C9.41451 11.1764 9.67448 11.0942 9.84399 11.0264L10.0022 10.9551C10.1495 10.8795 10.2701 10.787 10.3967 10.6572C10.5655 10.4843 10.6684 10.3221 10.7561 10.0908L10.8079 9.94043C10.8596 9.76848 10.9093 9.52495 10.926 9.15039C10.9504 8.60098 10.9553 8.43699 10.9553 7.04102C10.9553 5.6448 10.9504 5.4801 10.926 4.93066C10.9038 4.43176 10.8222 4.16563 10.7561 3.99121L10.6868 3.8291C10.6126 3.67735 10.5235 3.55277 10.3967 3.42285C10.2279 3.24973 10.0693 3.14436 9.84399 3.05469C9.67407 2.98708 9.41432 2.90463 8.92798 2.88184C8.39231 2.85689 8.23203 2.85156 6.86938 2.85156H6.31079V2.85059ZM6.86938 4.25488C8.37511 4.25488 9.59204 5.50491 9.59204 7.04199C9.59202 8.57908 8.37507 9.8291 6.86938 9.8291C5.36385 9.82894 4.14772 8.579 4.14771 7.04199C4.14771 5.50499 5.36382 4.25505 6.86938 4.25488ZM6.86938 5.39746C5.98696 5.39763 5.26782 6.13151 5.26782 7.04199C5.26784 7.95236 5.98698 8.68636 6.86938 8.68652C7.75183 8.68652 8.4719 7.95245 8.47192 7.04199C8.47192 6.13141 7.75185 5.39746 6.86938 5.39746Z" fill="white" stroke="white" stroke-width="0.2"/>
</svg>
